<?xml version="1.0" encoding="utf-8"?>
<!-- Generator: Adobe Illustrator 24.0.0, SVG Export Plug-In . SVG Version: 6.00 Build 0)  -->
<svg version="1.1" id="Layer_1" xmlns="http://www.w3.org/2000/svg" xmlns:xlink="http://www.w3.org/1999/xlink" x="0px" y="0px"
	 viewBox="0 0 480 480" style="enable-background:new 0 0 480 480;" xml:space="preserve">
<style type="text/css">
	.st0{fill:#FFFFFF;}
	.st1{fill:#0A78FF;}
</style>
<g>
	<path class="st0" d="M240,479.5c-63.97,0-124.12-24.91-169.35-70.15S0.5,303.97,0.5,240S25.41,115.88,70.65,70.65
		S176.03,0.5,240,0.5s124.12,24.91,169.35,70.15S479.5,176.03,479.5,240s-24.91,124.12-70.15,169.35S303.97,479.5,240,479.5z"/>
	<path class="st0" d="M240,1c32.27,0,63.56,6.32,93.03,18.78C361.49,31.82,387.05,49.05,409,71c21.95,21.95,39.18,47.51,51.22,75.97
		C472.68,176.44,479,207.73,479,240s-6.32,63.56-18.78,93.03C448.18,361.49,430.95,387.05,409,409
		c-21.95,21.95-47.51,39.18-75.97,51.22C303.56,472.68,272.27,479,240,479s-63.56-6.32-93.03-18.78
		C118.51,448.18,92.95,430.95,71,409c-21.95-21.95-39.18-47.51-51.22-75.97C7.32,303.56,1,272.27,1,240s6.32-63.56,18.78-93.03
		C31.82,118.51,49.05,92.95,71,71s47.51-39.18,75.97-51.22C176.44,7.32,207.73,1,240,1 M240,0C107.45,0,0,107.45,0,240
		s107.45,240,240,240s240-107.45,240-240S372.55,0,240,0L240,0z"/>
</g>
<g>
	<path class="st1" d="M249.13,264.88c0,12.5-1.88,23.88-5.63,34.13s-9.38,19-16.88,26.25s-17,12.88-28.5,16.88s-24.84,6-40,6h-16.5
		c-15.17,0-28.5-2-40-6s-21-9.63-28.5-16.88S60,309.25,56.25,299s-5.63-21.63-5.63-34.13v-26c0-12.5,1.88-23.88,5.63-34.13
		s9.38-19,16.88-26.25s17-12.88,28.5-16.88s24.83-6,40-6h16.5c15.16,0,28.5,2,40,6s21,9.63,28.5,16.88s13.13,16,16.88,26.25
		s5.63,21.63,5.63,34.13V264.88z M103.13,266.88c0,14.84,2.79,25.34,8.38,31.5c5.58,6.17,15.13,9.25,28.63,9.25h19.5
		c13.5,0,23.04-3.08,28.63-9.25c5.58-6.16,8.38-16.66,8.38-31.5v-30.5c0-14.83-2.79-25.29-8.38-31.38
		c-5.59-6.08-15.13-9.13-28.63-9.13h-19.5c-13.5,0-23.04,3.04-28.63,9.13c-5.59,6.09-8.38,16.54-8.38,31.38V266.88z"/>
	<path class="st1" d="M431.88,304.38v41.25h-72.5c-14.84,0-27.92-1.88-39.25-5.63c-11.34-3.75-20.75-9.08-28.25-16
		c-7.5-6.91-13.17-15.33-17-25.25c-3.84-9.91-5.75-20.96-5.75-33.13v-27.5c0-12.16,1.91-23.21,5.75-33.13
		c3.83-9.91,9.5-18.33,17-25.25c7.5-6.91,16.91-12.25,28.25-16c11.33-3.75,24.41-5.63,39.25-5.63h71.25v41.25h-68.75
		c-15.5,0-26.09,3.04-31.75,9.13c-5.67,6.09-8.5,16.13-8.5,30.13v26.5c0,14,2.91,24.04,8.75,30.13c5.83,6.09,16.75,9.13,32.75,9.13
		H431.88z"/>
</g>
<g>
</g>
<g>
</g>
<g>
</g>
<g>
</g>
<g>
</g>
<g>
</g>
<g>
</g>
<g>
</g>
<g>
</g>
<g>
</g>
<g>
</g>
<g>
</g>
<g>
</g>
<g>
</g>
<g>
</g>
</svg>
